<?xml version="1.0" standalone="no"?>
<!DOCTYPE svg PUBLIC "-//W3C//DTD SVG 20010904//EN"
 "http://www.w3.org/TR/2001/REC-SVG-20010904/DTD/svg10.dtd">
<svg version="1.0" xmlns="http://www.w3.org/2000/svg"
 width="688.000000pt" height="688.000000pt" viewBox="0 0 688.000000 688.000000"
 preserveAspectRatio="xMidYMid meet">
<metadata>
Created by potrace 1.14, written by Peter Selinger 2001-2017
</metadata>
<g transform="translate(0.000000,688.000000) scale(0.100000,-0.100000)"
fill="#000000" stroke="none">
<path d="M9 6136 c-2 -2 -4 -1230 -3 -2728 l1 -2723 561 -3 562 -2 1 47 c0 27
1 557 2 1178 l2 1130 22 1 c12 1 28 4 37 7 9 4 16 3 16 -1 0 -8 103 -8 117 1
5 3 14 2 21 -1 6 -4 30 -6 54 -4 49 4 47 4 108 1 25 -2 50 0 56 3 5 4 15 3 22
0 6 -4 30 -6 54 -4 49 4 47 4 108 1 25 -2 50 0 56 3 5 4 15 3 22 0 6 -4 30 -6
54 -4 49 4 47 4 108 1 25 -2 50 0 56 3 5 4 15 3 22 0 6 -4 30 -6 54 -4 24 2
48 3 53 3 6 0 30 -1 55 -2 25 0 50 0 55 1 6 1 15 1 20 0 28 -6 115 -4 115 3 0
5 5 5 11 1 15 -9 222 -9 237 0 7 4 12 4 12 -1 0 -10 122 -9 138 0 6 4 13 4 15
0 6 -10 140 -8 156 1 6 4 11 4 11 -1 0 -9 122 -9 137 0 6 4 13 4 16 0 10 -9
157 -9 157 0 0 5 4 6 9 3 4 -3 9 -524 9 -1168 0 -640 1 -1171 1 -1180 1 -17
91 -18 1754 -18 l1754 0 -1 438 -1 437 -1181 1 c-649 0 -1185 4 -1191 7 -7 5
-11 689 -11 2279 -1 1250 -1 2279 -1 2286 -1 9 -120 12 -561 12 l-560 0 -1
-27 c0 -16 0 -509 0 -1098 0 -588 -2 -1077 -5 -1085 -3 -13 -134 -15 -1096
-15 l-1093 0 -2 1085 c-1 597 -2 1097 -2 1113 l-1 27 -558 0 c-307 0 -561 -2
-563 -4z"/>
</g>
</svg>
