<svg width="569" height="113" viewBox="0 0 569 113" fill="none" xmlns="http://www.w3.org/2000/svg">
<path d="M51.6094 48.5469V59.5156H15.9844V48.5469H51.6094ZM20.1562 20.75V89H6.09375V20.75H20.1562ZM61.6406 20.75V89H47.625V20.75H61.6406ZM102.984 20.75V89H88.9688V20.75H102.984ZM123.984 20.75V31.7656H68.2969V20.75H123.984ZM138.422 20.75H150.328L167.859 70.8594L185.391 20.75H197.297L172.641 89H163.078L138.422 20.75ZM132 20.75H143.859L146.016 69.5938V89H132V20.75ZM191.859 20.75H203.766V89H189.703V69.5938L191.859 20.75Z" fill="white"/>
<path d="M259.969 78.0312V89H225.609V78.0312H259.969ZM230.156 20.75V89H216.094V20.75H230.156Z" fill="#F9F9F9"/>
<path d="M324.094 53.2812V56.5156C324.094 61.7031 323.391 66.3594 321.984 70.4844C320.578 74.6094 318.594 78.125 316.031 81.0312C313.469 83.9062 310.406 86.1094 306.844 87.6406C303.312 89.1719 299.391 89.9375 295.078 89.9375C290.797 89.9375 286.875 89.1719 283.312 87.6406C279.781 86.1094 276.719 83.9062 274.125 81.0312C271.531 78.125 269.516 74.6094 268.078 70.4844C266.672 66.3594 265.969 61.7031 265.969 56.5156V53.2812C265.969 48.0625 266.672 43.4062 268.078 39.3125C269.484 35.1875 271.469 31.6719 274.031 28.7656C276.625 25.8594 279.688 23.6406 283.219 22.1094C286.781 20.5781 290.703 19.8125 294.984 19.8125C299.297 19.8125 303.219 20.5781 306.75 22.1094C310.312 23.6406 313.375 25.8594 315.938 28.7656C318.531 31.6719 320.531 35.1875 321.938 39.3125C323.375 43.4062 324.094 48.0625 324.094 53.2812ZM309.891 56.5156V53.1875C309.891 49.5625 309.562 46.375 308.906 43.625C308.25 40.875 307.281 38.5625 306 36.6875C304.719 34.8125 303.156 33.4062 301.312 32.4688C299.469 31.5 297.359 31.0156 294.984 31.0156C292.609 31.0156 290.5 31.5 288.656 32.4688C286.844 33.4062 285.297 34.8125 284.016 36.6875C282.766 38.5625 281.812 40.875 281.156 43.625C280.5 46.375 280.172 49.5625 280.172 53.1875V56.5156C280.172 60.1094 280.5 63.2969 281.156 66.0781C281.812 68.8281 282.781 71.1562 284.062 73.0625C285.344 74.9375 286.906 76.3594 288.75 77.3281C290.594 78.2969 292.703 78.7812 295.078 78.7812C297.453 78.7812 299.562 78.2969 301.406 77.3281C303.25 76.3594 304.797 74.9375 306.047 73.0625C307.297 71.1562 308.25 68.8281 308.906 66.0781C309.562 63.2969 309.891 60.1094 309.891 56.5156ZM378.094 78.0312V89H343.734V78.0312H378.094ZM348.281 20.75V89H334.219V20.75H348.281ZM439.125 53.2812V56.5156C439.125 61.7031 438.422 66.3594 437.016 70.4844C435.609 74.6094 433.625 78.125 431.062 81.0312C428.5 83.9062 425.438 86.1094 421.875 87.6406C418.344 89.1719 414.422 89.9375 410.109 89.9375C405.828 89.9375 401.906 89.1719 398.344 87.6406C394.812 86.1094 391.75 83.9062 389.156 81.0312C386.562 78.125 384.547 74.6094 383.109 70.4844C381.703 66.3594 381 61.7031 381 56.5156V53.2812C381 48.0625 381.703 43.4062 383.109 39.3125C384.516 35.1875 386.5 31.6719 389.062 28.7656C391.656 25.8594 394.719 23.6406 398.25 22.1094C401.812 20.5781 405.734 19.8125 410.016 19.8125C414.328 19.8125 418.25 20.5781 421.781 22.1094C425.344 23.6406 428.406 25.8594 430.969 28.7656C433.562 31.6719 435.562 35.1875 436.969 39.3125C438.406 43.4062 439.125 48.0625 439.125 53.2812ZM424.922 56.5156V53.1875C424.922 49.5625 424.594 46.375 423.938 43.625C423.281 40.875 422.312 38.5625 421.031 36.6875C419.75 34.8125 418.188 33.4062 416.344 32.4688C414.5 31.5 412.391 31.0156 410.016 31.0156C407.641 31.0156 405.531 31.5 403.688 32.4688C401.875 33.4062 400.328 34.8125 399.047 36.6875C397.797 38.5625 396.844 40.875 396.188 43.625C395.531 46.375 395.203 49.5625 395.203 53.1875V56.5156C395.203 60.1094 395.531 63.2969 396.188 66.0781C396.844 68.8281 397.812 71.1562 399.094 73.0625C400.375 74.9375 401.938 76.3594 403.781 77.3281C405.625 78.2969 407.734 78.7812 410.109 78.7812C412.484 78.7812 414.594 78.2969 416.438 77.3281C418.281 76.3594 419.828 74.9375 421.078 73.0625C422.328 71.1562 423.281 68.8281 423.938 66.0781C424.594 63.2969 424.922 60.1094 424.922 56.5156ZM503.344 53.3281V80.375C502.281 81.6562 500.641 83.0469 498.422 84.5469C496.203 86.0156 493.344 87.2812 489.844 88.3438C486.344 89.4062 482.109 89.9375 477.141 89.9375C472.734 89.9375 468.719 89.2188 465.094 87.7812C461.469 86.3125 458.344 84.1719 455.719 81.3594C453.125 78.5469 451.125 75.1094 449.719 71.0469C448.312 66.9531 447.609 62.2812 447.609 57.0312V52.7656C447.609 47.5156 448.281 42.8438 449.625 38.75C451 34.6562 452.953 31.2031 455.484 28.3906C458.016 25.5781 461.031 23.4375 464.531 21.9688C468.031 20.5 471.922 19.7656 476.203 19.7656C482.141 19.7656 487.016 20.7344 490.828 22.6719C494.641 24.5781 497.547 27.2344 499.547 30.6406C501.578 34.0156 502.828 37.8906 503.297 42.2656H489.656C489.312 39.9531 488.656 37.9375 487.688 36.2188C486.719 34.5 485.328 33.1562 483.516 32.1875C481.734 31.2187 479.422 30.7344 476.578 30.7344C474.234 30.7344 472.141 31.2187 470.297 32.1875C468.484 33.125 466.953 34.5156 465.703 36.3594C464.453 38.2031 463.5 40.4844 462.844 43.2031C462.188 45.9219 461.859 49.0781 461.859 52.6719V57.0312C461.859 60.5938 462.203 63.75 462.891 66.5C463.578 69.2188 464.594 71.5156 465.938 73.3906C467.312 75.2344 469 76.625 471 77.5625C473 78.5 475.328 78.9688 477.984 78.9688C480.203 78.9688 482.047 78.7812 483.516 78.4062C485.016 78.0312 486.219 77.5781 487.125 77.0469C488.062 76.4844 488.781 75.9531 489.281 75.4531V63.3594H476.438V53.3281H503.344ZM524.062 20.75L538.312 51.875L552.562 20.75H567.891L545.438 64.1562V89H531.188V64.1562L508.688 20.75H524.062Z" fill="#F14C4C"/>
</svg>
