<svg width="565" height="113" viewBox="0 0 565 113" fill="none" xmlns="http://www.w3.org/2000/svg">
<path d="M51.6094 48.5469V59.5156H15.9844V48.5469H51.6094ZM20.1562 20.75V89H6.09375V20.75H20.1562ZM61.6406 20.75V89H47.625V20.75H61.6406ZM102.984 20.75V89H88.9688V20.75H102.984ZM123.984 20.75V31.7656H68.2969V20.75H123.984ZM138.422 20.75H150.328L167.859 70.8594L185.391 20.75H197.297L172.641 89H163.078L138.422 20.75ZM132 20.75H143.859L146.016 69.5938V89H132V20.75ZM191.859 20.75H203.766V89H189.703V69.5938L191.859 20.75ZM259.969 78.0312V89H225.609V78.0312H259.969ZM230.156 20.75V89H216.094V20.75H230.156ZM321 53.2812V56.5156C321 61.7031 320.297 66.3594 318.891 70.4844C317.484 74.6094 315.5 78.125 312.938 81.0312C310.375 83.9062 307.312 86.1094 303.75 87.6406C300.219 89.1719 296.297 89.9375 291.984 89.9375C287.703 89.9375 283.781 89.1719 280.219 87.6406C276.688 86.1094 273.625 83.9062 271.031 81.0312C268.438 78.125 266.422 74.6094 264.984 70.4844C263.578 66.3594 262.875 61.7031 262.875 56.5156V53.2812C262.875 48.0625 263.578 43.4062 264.984 39.3125C266.391 35.1875 268.375 31.6719 270.938 28.7656C273.531 25.8594 276.594 23.6406 280.125 22.1094C283.688 20.5781 287.609 19.8125 291.891 19.8125C296.203 19.8125 300.125 20.5781 303.656 22.1094C307.219 23.6406 310.281 25.8594 312.844 28.7656C315.438 31.6719 317.438 35.1875 318.844 39.3125C320.281 43.4062 321 48.0625 321 53.2812ZM306.797 56.5156V53.1875C306.797 49.5625 306.469 46.375 305.812 43.625C305.156 40.875 304.188 38.5625 302.906 36.6875C301.625 34.8125 300.062 33.4062 298.219 32.4688C296.375 31.5 294.266 31.0156 291.891 31.0156C289.516 31.0156 287.406 31.5 285.562 32.4688C283.75 33.4062 282.203 34.8125 280.922 36.6875C279.672 38.5625 278.719 40.875 278.062 43.625C277.406 46.375 277.078 49.5625 277.078 53.1875V56.5156C277.078 60.1094 277.406 63.2969 278.062 66.0781C278.719 68.8281 279.688 71.1562 280.969 73.0625C282.25 74.9375 283.812 76.3594 285.656 77.3281C287.5 78.2969 289.609 78.7812 291.984 78.7812C294.359 78.7812 296.469 78.2969 298.312 77.3281C300.156 76.3594 301.703 74.9375 302.953 73.0625C304.203 71.1562 305.156 68.8281 305.812 66.0781C306.469 63.2969 306.797 60.1094 306.797 56.5156ZM375 78.0312V89H340.641V78.0312H375ZM345.188 20.75V89H331.125V20.75H345.188ZM436.031 53.2812V56.5156C436.031 61.7031 435.328 66.3594 433.922 70.4844C432.516 74.6094 430.531 78.125 427.969 81.0312C425.406 83.9062 422.344 86.1094 418.781 87.6406C415.25 89.1719 411.328 89.9375 407.016 89.9375C402.734 89.9375 398.812 89.1719 395.25 87.6406C391.719 86.1094 388.656 83.9062 386.062 81.0312C383.469 78.125 381.453 74.6094 380.016 70.4844C378.609 66.3594 377.906 61.7031 377.906 56.5156V53.2812C377.906 48.0625 378.609 43.4062 380.016 39.3125C381.422 35.1875 383.406 31.6719 385.969 28.7656C388.562 25.8594 391.625 23.6406 395.156 22.1094C398.719 20.5781 402.641 19.8125 406.922 19.8125C411.234 19.8125 415.156 20.5781 418.688 22.1094C422.25 23.6406 425.312 25.8594 427.875 28.7656C430.469 31.6719 432.469 35.1875 433.875 39.3125C435.312 43.4062 436.031 48.0625 436.031 53.2812ZM421.828 56.5156V53.1875C421.828 49.5625 421.5 46.375 420.844 43.625C420.188 40.875 419.219 38.5625 417.938 36.6875C416.656 34.8125 415.094 33.4062 413.25 32.4688C411.406 31.5 409.297 31.0156 406.922 31.0156C404.547 31.0156 402.438 31.5 400.594 32.4688C398.781 33.4062 397.234 34.8125 395.953 36.6875C394.703 38.5625 393.75 40.875 393.094 43.625C392.438 46.375 392.109 49.5625 392.109 53.1875V56.5156C392.109 60.1094 392.438 63.2969 393.094 66.0781C393.75 68.8281 394.719 71.1562 396 73.0625C397.281 74.9375 398.844 76.3594 400.688 77.3281C402.531 78.2969 404.641 78.7812 407.016 78.7812C409.391 78.7812 411.5 78.2969 413.344 77.3281C415.188 76.3594 416.734 74.9375 417.984 73.0625C419.234 71.1562 420.188 68.8281 420.844 66.0781C421.5 63.2969 421.828 60.1094 421.828 56.5156ZM500.25 53.3281V80.375C499.188 81.6562 497.547 83.0469 495.328 84.5469C493.109 86.0156 490.25 87.2812 486.75 88.3438C483.25 89.4062 479.016 89.9375 474.047 89.9375C469.641 89.9375 465.625 89.2188 462 87.7812C458.375 86.3125 455.25 84.1719 452.625 81.3594C450.031 78.5469 448.031 75.1094 446.625 71.0469C445.219 66.9531 444.516 62.2812 444.516 57.0312V52.7656C444.516 47.5156 445.188 42.8438 446.531 38.75C447.906 34.6562 449.859 31.2031 452.391 28.3906C454.922 25.5781 457.938 23.4375 461.438 21.9688C464.938 20.5 468.828 19.7656 473.109 19.7656C479.047 19.7656 483.922 20.7344 487.734 22.6719C491.547 24.5781 494.453 27.2344 496.453 30.6406C498.484 34.0156 499.734 37.8906 500.203 42.2656H486.562C486.219 39.9531 485.562 37.9375 484.594 36.2188C483.625 34.5 482.234 33.1562 480.422 32.1875C478.641 31.2187 476.328 30.7344 473.484 30.7344C471.141 30.7344 469.047 31.2187 467.203 32.1875C465.391 33.125 463.859 34.5156 462.609 36.3594C461.359 38.2031 460.406 40.4844 459.75 43.2031C459.094 45.9219 458.766 49.0781 458.766 52.6719V57.0312C458.766 60.5938 459.109 63.75 459.797 66.5C460.484 69.2188 461.5 71.5156 462.844 73.3906C464.219 75.2344 465.906 76.625 467.906 77.5625C469.906 78.5 472.234 78.9688 474.891 78.9688C477.109 78.9688 478.953 78.7812 480.422 78.4062C481.922 78.0312 483.125 77.5781 484.031 77.0469C484.969 76.4844 485.688 75.9531 486.188 75.4531V63.3594H473.344V53.3281H500.25ZM520.969 20.75L535.219 51.875L549.469 20.75H564.797L542.344 64.1562V89H528.094V64.1562L505.594 20.75H520.969Z" fill="white"/>
</svg>
